<svg xmlns="http://www.w3.org/2000/svg" width="999" height="309" viewBox="0 0 999 309" role="img" aria-labelledby="title desc">
  <title id="title">PROdex wordmark v2</title>
  <desc id="desc">Outlined PROdex wordmark. Syne variable font outlines; PRO instantiated at wght=600, dex at wght=500. Natural spacing with O-to-d kern -0.005em. Uniform scale baked into paths.</desc>
  <style>
    :root { --prodex-pro: #BE1C1C; --prodex-dex: #12141A; }
    .dark { --prodex-pro: #E5392C; --prodex-dex: #E8EAED; }
    .pro { fill: #BE1C1C; fill: var(--prodex-pro); }
    .dex { fill: #12141A; fill: var(--prodex-dex); }
  </style>
  <g id="wordmark">
    <g id="PRO" class="pro">
      <path d="M100.46000570450656 181.1552310325157V161.29918996006847H155.48567598402738Q167.15850541928123 161.29918996006847 174.1725613234455 154.61626640045637Q181.18661722760982 147.93334284084426 181.18661722760982 136.5254192812322Q181.18661722760982 124.69749572162009 174.1725613234455 118.15834569309756Q167.15850541928123 111.61919566457503 155.48567598402738 111.61919566457503H103.82000570450656V226.80617227609812H80.0V90.70353108956076H153.89624073017683Q164.53831717056474 90.70353108956076 173.85416714204223 93.51107815173988Q183.1700171135197 96.318625213919 190.15973474044495 101.98862521391901Q197.14945236737023 107.65862521391901 201.0780376497433 116.24598402738164Q205.00662293211636 124.83334284084428 205.00662293211636 136.5254192812322Q205.00662293211636 148.08504278379922 201.0780376497433 156.53994865944097Q197.14945236737023 164.9948545350827 190.15973474044495 170.46617512835138Q183.1700171135197 175.93749572162008 173.85416714204223 178.5463633770679Q164.53831717056474 181.1552310325157 153.89624073017683 181.1552310325157Z"/>
      <path d="M231.2 226.80617227609812V90.70353108956076H311.6028465487735Q326.8100171135197 90.70353108956076 337.88341414717627 95.00853108956076Q348.95681118083286 99.31353108956077 355.0403023388477 108.25466343411296Q361.1237934968625 117.19579577866516 361.1237934968625 131.01051340559042Q361.1237934968625 140.36032515687396 357.9576611523103 146.9252310325157Q354.79152880775814 153.49013690815747 349.1554905875642 157.72891043924702Q343.51945236737026 161.96768397033657 336.0984141471763 164.21145750142614Q328.67737592698234 166.4552310325157 320.16756417569877 167.0852310325157L318.0805818596691 165.63787221905307Q331.46228180262403 165.9254192812322 340.3694523673702 168.16919281232174Q349.27662293211637 170.4129663434113 353.88530233884774 176.30428693668Q358.49398174557905 182.19560752994866 358.49398174557905 193.84579577866515V226.80617227609812H334.6739760410725V195.03787221905307Q334.6739760410725 187.0352310325157 331.9052025099829 182.57513690815745Q329.1364289788933 178.1150427837992 322.25652310325154 176.31872219053054Q315.3766172276098 174.52240159726185 302.76699372504277 174.52240159726185H255.02000570450656V226.80617227609812ZM255.02000570450656 154.93126640045637H311.6028465487735Q324.293411294923 154.93126640045637 330.79859954363945 148.67966343411297Q337.30378779235593 142.42806046776954 337.30378779235593 132.07013690815745Q337.30378779235593 122.13221334854536 330.79859954363945 116.8757045065602Q324.293411294923 111.61919566457503 311.6028465487735 111.61919566457503H255.02000570450656Z"/>
      <path d="M463.8630290929835 229.30353108956075Q439.87491158014836 229.30353108956075 422.1333057615517 220.72098402738163Q404.391699942955 212.13843696520252 394.63320878494017 196.38843696520252Q384.8747176269253 180.63843696520252 384.8747176269253 158.82107815173987Q384.8747176269253 136.87126640045636 394.63320878494017 121.0824928693668Q404.391699942955 105.29371933827724 422.1333057615517 96.74994580718769Q439.87491158014836 88.20617227609813 463.8630290929835 88.20617227609813Q487.9835995436395 88.20617227609813 505.65897889332575 96.74994580718769Q523.334358243012 105.29371933827724 533.0928494010268 121.0824928693668Q542.8513405590417 136.87126640045636 542.8513405590417 158.82107815173987Q542.8513405590417 180.63843696520252 533.0928494010268 196.38843696520252Q523.334358243012 212.13843696520252 505.65897889332575 220.72098402738163Q487.9835995436395 229.30353108956075 463.8630290929835 229.30353108956075ZM463.8630290929835 208.25541357672563Q479.73246434683404 208.25541357672563 491.93340844266976 202.78890473474047Q504.1343525385055 197.32239589275528 511.18548488305765 186.3344723331432Q518.2366172276098 175.34654877353108 518.2366172276098 158.82107815173987Q518.2366172276098 142.29560752994865 511.18548488305765 131.34645750142613Q504.1343525385055 120.3973074729036 491.93340844266976 114.82579863091844Q479.73246434683404 109.25428978893328 463.8630290929835 109.25428978893328Q448.20359383913296 109.25428978893328 435.76519680547636 114.82579863091844Q423.32679977181976 120.3973074729036 416.20944095835716 131.34645750142613Q409.0920821448945 142.29560752994865 409.0920821448945 158.82107815173987Q409.0920821448945 175.34654877353108 416.20944095835716 186.3344723331432Q423.32679977181976 197.32239589275528 435.76519680547636 202.78890473474047Q448.20359383913296 208.25541357672563 463.8630290929835 208.25541357672563Z"/>
    </g>
    <g id="dex" class="dex">
      <path d="M609.1286023958928 228.97078151739876Q595.5594637763834 228.97078151739876 584.4537621220765 222.00039075869938Q573.3480604677695 215.03 566.8704050199658 202.745Q560.3927495721621 190.46 560.3927495721621 174.58078151739875Q560.3927495721621 158.57234455219623 566.6927096406162 146.24695379349686Q572.9926697090701 133.9215630347975 583.993371363377 126.87847689674844Q594.994073017684 119.83539075869939 609.1286023958928 119.83539075869939Q621.5993040501996 119.83539075869939 629.7973103251568 124.10808613804907Q637.995316600114 128.38078151739876 642.6314090131203 135.90847689674845Q647.2675014261266 143.43617227609815 649.2301568739304 153.30617227609815Q651.1928123217342 163.17617227609813 651.1928123217342 174.58078151739875Q651.1928123217342 182.94843696520252 649.1251568739305 192.35804620650316Q647.0575014261267 201.76765544780378 642.3487136337708 210.1434369652025Q637.6399258414148 218.51921848260127 629.5146149458072 223.745Q621.3893040501997 228.97078151739876 609.1286023958928 228.97078151739876ZM614.7500057045065 211.4601597261837Q625.9768796349116 211.4601597261837 633.6256674272676 206.53320593268683Q641.2744552196235 201.60625213918996 645.0867199087279 193.2466029663434Q648.8989845978323 184.88695379349687 648.8989845978323 174.58078151739875Q648.8989845978323 163.28921848260126 644.9817199087279 154.96187393040503Q641.0644552196235 146.6345293782088 633.4479720479178 141.99027096406164Q625.8314888762122 137.34601254991446 614.7500057045065 137.34601254991446Q598.4831317741016 137.34601254991446 589.5500855675984 147.82183399885912Q580.6170393610953 158.29765544780378 580.6170393610953 174.58078151739875Q580.6170393610953 185.3877353108956 585.0189532230463 193.71507986309183Q589.4208670849972 202.04242441528808 597.1343040501997 206.75129207073587Q604.8477410154022 211.4601597261837 614.7500057045065 211.4601597261837ZM648.8989845978323 80.0H668.9294466628637V226.80617227609812H650.4982030804335Q650.0135938391329 222.1215630347975 649.4562892184827 215.40160296634343Q648.8989845978323 208.68164289788933 648.8989845978323 203.99711351968057Z"/>
      <path d="M779.8906274957214 192.73773531089563H798.9356988020535Q797.2556988020535 203.15695379349688 791.0284341129491 211.3388676554478Q784.8011694238447 219.52078151739875 774.5193354249857 224.27808613804905Q764.2375014261265 229.03539075869938 750.3130519110096 229.03539075869938Q733.9978208784939 229.03539075869938 721.1394637763833 222.19421848260126Q708.2811066742726 215.35304620650314 700.9069281232173 203.10035082715348Q693.532749572162 190.8476554478038 693.532749572162 174.6453907586994Q693.532749572162 158.443126069595 700.6969281232173 146.0854306902453Q707.8611066742726 133.7277353108956 720.4771591557329 126.7815630347975Q733.0932116371932 119.83539075869939 749.3276611523102 119.83539075869939Q766.2728921848259 119.83539075869939 777.814726183685 126.56347689674844Q789.3565601825441 133.2915630347975 794.9538248716485 146.4165630347975Q800.5510895607529 159.5415630347975 799.5010895607529 179.03921848260126H713.6278208784939Q714.6778208784939 188.61851682829436 719.3947347404448 196.0008613804906Q724.1116486023958 203.38320593268682 731.9623901882486 207.52668282943526Q739.8131317741014 211.6701597261837 750.1192241871076 211.6701597261837Q761.5399258414146 211.6701597261837 769.3825812892184 206.42820593268684Q777.2252367370221 201.18625213918997 779.8906274957214 192.73773531089563ZM749.3761779806046 137.13601254991443Q735.7100855675983 137.13601254991443 726.6962578436965 144.4052709640616Q717.6824301197945 151.67452937820877 714.8070393610951 163.66078151739876H779.2444552196234Q778.3398459783227 150.8345293782088 769.9964090131202 143.9852709640616Q761.6529720479177 137.13601254991443 749.3761779806046 137.13601254991443Z"/>
      <path d="M916.7295265259555 122.00000000000001 871.8545350827154 179.44304620650314 836.7200855675984 226.80617227609812H812.3443126069595L859.8200855675984 166.2777353108956L892.4183628066173 122.00000000000001ZM812.3443126069595 122.00000000000001H837.1562578436966L871.8383628066173 166.4392983456931L919.087963491158 226.80617227609812H894.7121905305191L858.6893040501997 179.63687393040502Z"/>
    </g>
  </g>
</svg>
